<svg width="90" height="90" viewBox="0 0 90 90" fill="none" xmlns="http://www.w3.org/2000/svg">
    <g filter="url(#filter0_d_983_1749)">
        <circle cx="45" cy="44" r="42" fill="black"/>
        <g clip-path="url(#clip0_983_1749)">
            <path d="M65.7838 55.1719L58.8504 62.4961C58.6997 62.6552 58.5173 62.782 58.3146 62.8687C58.112 62.9554 57.8934 63.0001 57.6725 63H24.8049C24.6481 63 24.4947 62.9548 24.3635 62.8702C24.2324 62.7854 24.1292 62.6649 24.0667 62.5232C24.0042 62.3815 23.9851 62.2249 24.0117 62.0727C24.0383 61.9204 24.1094 61.7792 24.2164 61.6662L31.155 54.342C31.3053 54.1833 31.4871 54.0567 31.6891 53.9701C31.8911 53.8834 32.109 53.8385 32.3293 53.8381H65.1951C65.3519 53.8381 65.5053 53.8832 65.6366 53.9679C65.7676 54.0526 65.8707 54.1733 65.9335 54.3149C65.9958 54.4566 66.015 54.6132 65.9884 54.7654C65.9618 54.9176 65.8906 55.0589 65.7838 55.1719ZM58.8504 40.4229C58.6997 40.2638 58.5173 40.137 58.3146 40.0503C58.112 39.9636 57.8934 39.9189 57.6725 39.9191H24.8049C24.6481 39.9191 24.4947 39.9642 24.3635 40.0489C24.2324 40.1336 24.1292 40.2542 24.0667 40.3959C24.0042 40.5376 23.9851 40.6941 24.0117 40.8464C24.0383 40.9986 24.1094 41.1399 24.2164 41.2528L31.155 48.5771C31.3053 48.7357 31.4871 48.8623 31.6891 48.949C31.8911 49.0357 32.109 49.0806 32.3293 49.0809H65.1951C65.3519 49.0809 65.5053 49.0358 65.6366 48.9511C65.7676 48.8664 65.8707 48.7458 65.9335 48.6041C65.9958 48.4624 66.015 48.3059 65.9884 48.1536C65.9618 48.0014 65.8906 47.8601 65.7838 47.7472L58.8504 40.4229ZM24.8049 35.1619H57.6725C57.8934 35.162 58.112 35.1173 58.3146 35.0306C58.5173 34.944 58.6997 34.8171 58.8504 34.658L65.7838 27.3338C65.8906 27.2208 65.9618 27.0796 65.9884 26.9273C66.015 26.7751 65.9958 26.6185 65.9335 26.4768C65.8707 26.3352 65.7676 26.2146 65.6366 26.1298C65.5053 26.0451 65.3519 26 65.1951 26H32.3293C32.109 26.0004 31.8911 26.0453 31.6891 26.132C31.4871 26.2186 31.3053 26.3452 31.155 26.5039L24.2182 33.8281C24.1113 33.941 24.0402 34.0821 24.0135 34.2341C23.9869 34.3862 24.0058 34.5427 24.0681 34.6843C24.1304 34.8259 24.2333 34.9465 24.3642 35.0313C24.4951 35.1162 24.6482 35.1615 24.8049 35.1619Z" fill="url(#paint0_linear_983_1749)"/>
        </g>
    </g>
    <defs>
        <filter id="filter0_d_983_1749" x="0" y="0" width="90" height="90" filterUnits="userSpaceOnUse" color-interpolation-filters="sRGB">
            <feFlood flood-opacity="0" result="BackgroundImageFix"/>
            <feColorMatrix in="SourceAlpha" type="matrix" values="0 0 0 0 0 0 0 0 0 0 0 0 0 0 0 0 0 0 127 0" result="hardAlpha"/>
            <feOffset dy="1"/>
            <feGaussianBlur stdDeviation="1.5"/>
            <feColorMatrix type="matrix" values="0 0 0 0 0.129412 0 0 0 0 0.105882 0 0 0 0 0.305882 0 0 0 0.15 0"/>
            <feBlend mode="normal" in2="BackgroundImageFix" result="effect1_dropShadow_983_1749"/>
            <feBlend mode="normal" in="SourceGraphic" in2="effect1_dropShadow_983_1749" result="shape"/>
        </filter>
        <linearGradient id="paint0_linear_983_1749" x1="27.5453" y1="63.8818" x2="61.4304" y2="25.1017" gradientUnits="userSpaceOnUse">
            <stop offset="0.08" stop-color="#9945FF"/>
            <stop offset="0.3" stop-color="#8752F3"/>
            <stop offset="0.5" stop-color="#5497D5"/>
            <stop offset="0.6" stop-color="#43B4CA"/>
            <stop offset="0.72" stop-color="#28E0B9"/>
            <stop offset="0.97" stop-color="#19FB9B"/>
        </linearGradient>
        <clipPath id="clip0_983_1749">
            <rect width="42" height="37" fill="white" transform="translate(24 26)"/>
        </clipPath>
    </defs>
</svg>